<svg width="151" height="41" viewBox="0 0 151 41" fill="none" xmlns="http://www.w3.org/2000/svg">
<path d="M66.4375 24.4215H66.8125V11.4528C66.8125 11.1194 66.8333 10.8069 66.875 10.5153C66.9167 10.2132 67.0052 9.95276 67.1406 9.73401C67.2865 9.51526 67.4948 9.34338 67.7656 9.21838C68.0469 9.08297 68.4271 9.01526 68.9062 9.01526C69.4375 9.01526 69.8542 9.08297 70.1562 9.21838C70.4688 9.34338 70.7031 9.51526 70.8594 9.73401C71.0156 9.95276 71.1146 10.2132 71.1562 10.5153C71.1979 10.8069 71.2188 11.1194 71.2188 11.4528V27.2965C71.2188 27.7548 71.2031 28.1976 71.1719 28.6246C71.151 29.0517 71.0677 29.4371 70.9219 29.7809C70.7865 30.1142 70.5573 30.3851 70.2344 30.5934C69.9219 30.7913 69.4792 30.8903 68.9062 30.8903H66.8438C66.3542 30.8903 65.9427 30.7965 65.6094 30.609C65.2865 30.4111 65.0156 30.1767 64.7969 29.9059C64.5781 29.6246 64.401 29.333 64.2656 29.0309C64.1406 28.7288 64.0417 28.4736 63.9688 28.2653L59.25 15.484H58.875V28.4528C58.875 28.7861 58.8542 29.1038 58.8125 29.4059C58.7708 29.6976 58.6771 29.9528 58.5312 30.1715C58.3958 30.3903 58.1875 30.5673 57.9062 30.7028C57.6354 30.8278 57.2604 30.8903 56.7812 30.8903C56.2396 30.8903 55.8125 30.8278 55.5 30.7028C55.1875 30.5673 54.9531 30.3903 54.7969 30.1715C54.6406 29.9528 54.5417 29.6976 54.5 29.4059C54.4583 29.1038 54.4375 28.7861 54.4375 28.4528V12.609C54.4375 12.1611 54.4479 11.7236 54.4688 11.2965C54.5 10.859 54.5885 10.4736 54.7344 10.1403C54.8802 9.79651 55.1094 9.52568 55.4219 9.32776C55.7448 9.11943 56.1979 9.01526 56.7812 9.01526H58.8438C59.3646 9.01526 59.7865 9.11943 60.1094 9.32776C60.4427 9.52568 60.7135 9.74443 60.9219 9.98401C61.151 10.2653 61.3333 10.5882 61.4688 10.9528L66.4375 24.4215ZM87.7812 31.359C87.7812 32.2965 87.651 33.0882 87.3906 33.734C87.1406 34.3798 86.8177 34.9163 86.4219 35.3434C86.026 35.7705 85.5833 36.1038 85.0938 36.3434C84.6146 36.583 84.1406 36.7601 83.6719 36.8746C83.2135 36.9996 82.7917 37.0726 82.4062 37.0934C82.0208 37.1246 81.7292 37.1403 81.5312 37.1403C80.7917 37.1403 80.0521 37.0882 79.3125 36.984C78.5729 36.8798 77.8958 36.6871 77.2812 36.4059C76.6771 36.1246 76.1719 35.7444 75.7656 35.2653C75.3698 34.7861 75.1458 34.1715 75.0938 33.4215C75.0938 33.2965 75.1146 33.1559 75.1562 32.9996C75.1979 32.8434 75.2917 32.6923 75.4375 32.5465C75.5833 32.4111 75.8021 32.2913 76.0938 32.1871C76.3854 32.0934 76.7812 32.0465 77.2812 32.0465C77.8854 32.0465 78.349 32.0934 78.6719 32.1871C78.9948 32.2913 79.2344 32.4111 79.3906 32.5465C79.5469 32.6923 79.6458 32.8434 79.6875 32.9996C79.7396 33.1663 79.7917 33.3173 79.8438 33.4528C79.9271 33.6715 80.0885 33.8226 80.3281 33.9059C80.5781 33.9996 80.9167 34.0465 81.3438 34.0465C81.7292 34.0465 82.0312 33.958 82.25 33.7809C82.4792 33.6038 82.651 33.3903 82.7656 33.1403C82.8802 32.9007 82.9531 32.6507 82.9844 32.3903C83.0156 32.1403 83.0312 31.9319 83.0312 31.7653V28.2653C82.9375 28.5778 82.8021 28.8903 82.625 29.2028C82.4583 29.5153 82.2396 29.7965 81.9688 30.0465C81.6979 30.2965 81.3698 30.4996 80.9844 30.6559C80.6094 30.8121 80.1667 30.8903 79.6562 30.8903C79.0833 30.8903 78.5104 30.7965 77.9375 30.609C77.3646 30.4215 76.8438 30.1142 76.375 29.6871C75.9167 29.2496 75.5417 28.6767 75.25 27.9684C74.9583 27.2601 74.8125 26.3798 74.8125 25.3278V20.7965C74.8125 19.7653 74.9583 18.9007 75.25 18.2028C75.5417 17.4944 75.9167 16.9215 76.375 16.484C76.8438 16.0465 77.3646 15.734 77.9375 15.5465C78.5104 15.359 79.0833 15.2653 79.6562 15.2653C80.1667 15.2653 80.6094 15.3486 80.9844 15.5153C81.3698 15.6715 81.6979 15.8746 81.9688 16.1246C82.2396 16.3746 82.4583 16.6559 82.625 16.9684C82.8021 17.2809 82.9375 17.5882 83.0312 17.8903C83.0312 17.6819 83.0469 17.4267 83.0781 17.1246C83.1198 16.8226 83.2188 16.5361 83.375 16.2653C83.5312 15.984 83.7708 15.7496 84.0938 15.5621C84.4167 15.3642 84.8646 15.2653 85.4375 15.2653C86 15.2653 86.4375 15.3694 86.75 15.5778C87.0625 15.7757 87.2969 16.0413 87.4531 16.3746C87.6094 16.708 87.7031 17.0882 87.7344 17.5153C87.7656 17.9319 87.7812 18.359 87.7812 18.7965V31.359ZM79.6562 24.984C79.6562 25.2548 79.6667 25.5257 79.6875 25.7965C79.7083 26.0673 79.7656 26.3121 79.8594 26.5309C79.9531 26.7392 80.0885 26.9111 80.2656 27.0465C80.4531 27.1715 80.7083 27.234 81.0312 27.234C81.4375 27.234 81.7708 27.1038 82.0312 26.8434C82.2917 26.583 82.4948 26.2653 82.6406 25.8903C82.7865 25.5048 82.8854 25.1038 82.9375 24.6871C83 24.2601 83.0312 23.8798 83.0312 23.5465C83.0208 22.7548 82.9844 22.0673 82.9219 21.484C82.8698 20.9007 82.7708 20.4215 82.625 20.0465C82.4792 19.6611 82.276 19.3798 82.0156 19.2028C81.7656 19.0153 81.4375 18.9215 81.0312 18.9215C80.7083 18.9215 80.4531 18.9892 80.2656 19.1246C80.0885 19.2496 79.9531 19.4215 79.8594 19.6403C79.7656 19.859 79.7083 20.1038 79.6875 20.3746C79.6667 20.6455 79.6562 20.9215 79.6562 21.2028V24.984ZM92.0625 18.7653C92.0625 18.3278 92.0833 17.9007 92.125 17.484C92.1771 17.0673 92.2865 16.6976 92.4531 16.3746C92.6198 16.0413 92.8594 15.7757 93.1719 15.5778C93.4844 15.3694 93.9062 15.2653 94.4375 15.2653C94.9688 15.2653 95.3906 15.3694 95.7031 15.5778C96.0156 15.7757 96.2552 16.0413 96.4219 16.3746C96.5885 16.6976 96.6927 17.0673 96.7344 17.484C96.7865 17.9007 96.8125 18.3278 96.8125 18.7653V27.3903C96.8125 27.8278 96.7865 28.2601 96.7344 28.6871C96.6927 29.1038 96.5885 29.4788 96.4219 29.8121C96.2552 30.1351 96.0156 30.3955 95.7031 30.5934C95.3906 30.7913 94.9688 30.8903 94.4375 30.8903C93.9062 30.8903 93.4844 30.7913 93.1719 30.5934C92.8594 30.3955 92.6198 30.1351 92.4531 29.8121C92.2865 29.4788 92.1771 29.1038 92.125 28.6871C92.0833 28.2601 92.0625 27.8278 92.0625 27.3903V18.7653ZM96.8438 11.3903C96.8438 12.1923 96.6354 12.7913 96.2188 13.1871C95.8021 13.5726 95.2188 13.7653 94.4688 13.7653C93.7188 13.7653 93.1354 13.5726 92.7188 13.1871C92.3021 12.7913 92.0938 12.1923 92.0938 11.3903C92.0938 10.5569 92.3021 9.95276 92.7188 9.57776C93.1354 9.20276 93.7188 9.01526 94.4688 9.01526C95.2708 9.01526 95.8646 9.20276 96.25 9.57776C96.6458 9.95276 96.8438 10.5569 96.8438 11.3903ZM112.062 30.8903C111.531 30.8903 111.109 30.7913 110.797 30.5934C110.484 30.3851 110.245 30.1142 110.078 29.7809C109.911 29.4476 109.802 29.0726 109.75 28.6559C109.708 28.2288 109.688 27.7965 109.688 27.359V21.1715C109.688 20.8903 109.672 20.6142 109.641 20.3434C109.62 20.0726 109.562 19.833 109.469 19.6246C109.375 19.4163 109.234 19.2496 109.047 19.1246C108.87 18.9892 108.625 18.9215 108.312 18.9215C107.896 18.9215 107.557 19.0621 107.297 19.3434C107.036 19.6246 106.828 20.0101 106.672 20.4996C106.526 20.9788 106.422 21.5465 106.359 22.2028C106.307 22.859 106.281 23.5673 106.281 24.3278V27.359C106.281 27.7965 106.255 28.2288 106.203 28.6559C106.161 29.0726 106.057 29.4476 105.891 29.7809C105.734 30.1142 105.5 30.3851 105.188 30.5934C104.875 30.7913 104.448 30.8903 103.906 30.8903C103.365 30.8903 102.938 30.7913 102.625 30.5934C102.312 30.3851 102.073 30.1142 101.906 29.7809C101.75 29.4476 101.646 29.0726 101.594 28.6559C101.552 28.2288 101.531 27.7965 101.531 27.359V18.7965C101.531 18.359 101.547 17.9319 101.578 17.5153C101.62 17.0882 101.719 16.708 101.875 16.3746C102.031 16.0413 102.266 15.7757 102.578 15.5778C102.901 15.3694 103.344 15.2653 103.906 15.2653C104.479 15.2653 104.922 15.3642 105.234 15.5621C105.557 15.7496 105.797 15.984 105.953 16.2653C106.109 16.5361 106.203 16.8226 106.234 17.1246C106.266 17.4267 106.281 17.6819 106.281 17.8903C106.375 17.5882 106.521 17.2809 106.719 16.9684C106.927 16.6559 107.188 16.3746 107.5 16.1246C107.812 15.8746 108.172 15.6715 108.578 15.5153C108.984 15.3486 109.438 15.2653 109.938 15.2653C110.625 15.2653 111.292 15.4319 111.938 15.7653C112.583 16.0986 113.135 16.6403 113.594 17.3903C113.75 17.0361 113.979 16.7288 114.281 16.4684C114.583 16.1976 114.927 15.9736 115.312 15.7965C115.698 15.6194 116.109 15.4892 116.547 15.4059C116.984 15.3121 117.417 15.2653 117.844 15.2653C118.417 15.2653 118.99 15.359 119.562 15.5465C120.135 15.734 120.651 16.0465 121.109 16.484C121.568 16.9215 121.938 17.4944 122.219 18.2028C122.51 18.9007 122.656 19.7653 122.656 20.7965V27.359C122.656 27.7965 122.63 28.2288 122.578 28.6559C122.526 29.0726 122.417 29.4476 122.25 29.7809C122.083 30.1142 121.839 30.3851 121.516 30.5934C121.203 30.7913 120.781 30.8903 120.25 30.8903C119.708 30.8903 119.276 30.7913 118.953 30.5934C118.641 30.3851 118.401 30.1142 118.234 29.7809C118.068 29.4476 117.958 29.0726 117.906 28.6559C117.865 28.2288 117.844 27.7965 117.844 27.359V21.1715C117.844 20.8903 117.828 20.6142 117.797 20.3434C117.766 20.0726 117.703 19.833 117.609 19.6246C117.516 19.4163 117.375 19.2496 117.188 19.1246C117 18.9892 116.75 18.9215 116.438 18.9215C116.104 18.9215 115.818 19.0257 115.578 19.234C115.349 19.4423 115.156 19.7288 115 20.0934C114.844 20.458 114.724 20.8955 114.641 21.4059C114.557 21.9059 114.5 22.4528 114.469 23.0465V27.359C114.469 27.7965 114.443 28.2288 114.391 28.6559C114.349 29.0726 114.245 29.4476 114.078 29.7809C113.911 30.1142 113.667 30.3851 113.344 30.5934C113.031 30.7913 112.604 30.8903 112.062 30.8903ZM126.562 18.7965C126.562 18.359 126.578 17.9319 126.609 17.5153C126.641 17.0882 126.734 16.708 126.891 16.3746C127.047 16.0413 127.281 15.7757 127.594 15.5778C127.906 15.3694 128.344 15.2653 128.906 15.2653C129.479 15.2653 129.927 15.3642 130.25 15.5621C130.573 15.7496 130.812 15.984 130.969 16.2653C131.125 16.5361 131.219 16.8226 131.25 17.1246C131.292 17.4267 131.312 17.6819 131.312 17.8903C131.406 17.5882 131.536 17.2809 131.703 16.9684C131.88 16.6559 132.104 16.3746 132.375 16.1246C132.646 15.8746 132.969 15.6715 133.344 15.5153C133.729 15.3486 134.177 15.2653 134.688 15.2653C135.26 15.2653 135.833 15.359 136.406 15.5465C136.979 15.734 137.495 16.0465 137.953 16.484C138.411 16.9215 138.781 17.4944 139.062 18.2028C139.354 18.9007 139.5 19.7653 139.5 20.7965V25.3278C139.5 26.3694 139.354 27.2444 139.062 27.9528C138.781 28.6507 138.411 29.2184 137.953 29.6559C137.495 30.083 136.979 30.3903 136.406 30.5778C135.833 30.7653 135.26 30.859 134.688 30.859C134.177 30.859 133.729 30.7809 133.344 30.6246C132.969 30.4684 132.646 30.2653 132.375 30.0153C132.104 29.7653 131.88 29.484 131.703 29.1715C131.536 28.859 131.406 28.5465 131.312 28.234V33.5778C131.312 34.0361 131.286 34.4788 131.234 34.9059C131.193 35.333 131.089 35.708 130.922 36.0309C130.766 36.3642 130.526 36.6298 130.203 36.8278C129.88 37.0361 129.448 37.1403 128.906 37.1403C128.385 37.1403 127.969 37.0361 127.656 36.8278C127.344 36.6298 127.104 36.3642 126.938 36.0309C126.781 35.708 126.677 35.333 126.625 34.9059C126.583 34.4788 126.562 34.0361 126.562 33.5778V18.7965ZM134.688 21.2028C134.688 20.9215 134.677 20.6455 134.656 20.3746C134.635 20.1038 134.578 19.859 134.484 19.6403C134.391 19.4215 134.25 19.2496 134.062 19.1246C133.885 18.9892 133.635 18.9215 133.312 18.9215C132.906 18.9215 132.573 19.0153 132.312 19.2028C132.062 19.3798 131.865 19.6611 131.719 20.0465C131.573 20.4215 131.469 20.9007 131.406 21.484C131.354 22.0673 131.323 22.7548 131.312 23.5465C131.312 23.8798 131.339 24.2601 131.391 24.6871C131.453 25.1038 131.557 25.4996 131.703 25.8746C131.849 26.2496 132.052 26.5673 132.312 26.8278C132.573 27.0778 132.906 27.2028 133.312 27.2028C133.635 27.2028 133.885 27.1403 134.062 27.0153C134.25 26.8798 134.391 26.708 134.484 26.4996C134.578 26.2913 134.635 26.0569 134.656 25.7965C134.677 25.5257 134.688 25.2548 134.688 24.984V21.2028ZM143.5 18.7653C143.5 18.3278 143.521 17.9007 143.562 17.484C143.615 17.0673 143.724 16.6976 143.891 16.3746C144.057 16.0413 144.297 15.7757 144.609 15.5778C144.922 15.3694 145.344 15.2653 145.875 15.2653C146.406 15.2653 146.828 15.3694 147.141 15.5778C147.453 15.7757 147.693 16.0413 147.859 16.3746C148.026 16.6976 148.13 17.0673 148.172 17.484C148.224 17.9007 148.25 18.3278 148.25 18.7653V27.3903C148.25 27.8278 148.224 28.2601 148.172 28.6871C148.13 29.1038 148.026 29.4788 147.859 29.8121C147.693 30.1351 147.453 30.3955 147.141 30.5934C146.828 30.7913 146.406 30.8903 145.875 30.8903C145.344 30.8903 144.922 30.7913 144.609 30.5934C144.297 30.3955 144.057 30.1351 143.891 29.8121C143.724 29.4788 143.615 29.1038 143.562 28.6871C143.521 28.2601 143.5 27.8278 143.5 27.3903V18.7653ZM148.281 11.3903C148.281 12.1923 148.073 12.7913 147.656 13.1871C147.24 13.5726 146.656 13.7653 145.906 13.7653C145.156 13.7653 144.573 13.5726 144.156 13.1871C143.74 12.7913 143.531 12.1923 143.531 11.3903C143.531 10.5569 143.74 9.95276 144.156 9.57776C144.573 9.20276 145.156 9.01526 145.906 9.01526C146.708 9.01526 147.302 9.20276 147.688 9.57776C148.083 9.95276 148.281 10.5569 148.281 11.3903Z" fill="#31457E"/>
<path d="M10.3314 31.149C10.2313 30.6953 10.3933 30.3313 10.4897 29.9645C10.7501 28.9786 10.9893 27.989 11.0668 26.9582C11.0934 26.5989 11.0861 26.2485 10.9273 25.9181C10.7555 25.5588 10.463 25.4289 10.1398 25.6252C9.35885 26.099 8.73991 26.7882 8.20096 27.5764C8.18045 27.6063 8.16076 27.6493 8.16281 27.6839C8.16979 27.7951 8.15584 27.9348 8.20916 28.0072C8.2633 28.081 8.39004 28.1263 8.48069 28.1189C8.92613 28.0801 9.20463 27.674 9.56886 27.4554C9.66443 27.3979 9.78953 27.4516 9.79404 27.5867C9.8006 27.7801 9.78132 27.981 9.73949 28.1693C9.52825 29.1286 9.29733 30.0818 9.09265 31.0429C9.02744 31.3471 8.99052 31.6681 8.99585 31.9807C9.00488 32.5156 9.38674 32.8366 9.85228 32.7343C9.98805 32.7049 10.125 32.661 10.251 32.596C11.0746 32.1722 11.8994 31.748 12.6377 31.1429C13.0335 30.8186 13.4109 30.4668 13.7005 30.0117C13.7644 29.9107 13.7845 29.7911 13.6984 29.7005C13.6562 29.6561 13.5667 29.6267 13.5147 29.6458C12.7858 29.9136 12.0807 30.2462 11.4056 30.6607C11.0774 30.8625 10.7505 31.0798 10.3314 31.149ZM31.4873 15.4378C31.4208 15.6046 31.3577 15.7859 31.2789 15.9574C30.7785 17.0475 30.1313 18.0259 29.4963 19.0146C29.2716 19.3641 29.0324 19.7183 28.8844 20.1117C28.5854 20.906 28.8491 21.4218 29.395 21.6681C29.5878 21.755 29.7822 21.869 29.9832 21.8961C31.162 22.055 32.3408 22.0587 33.5106 21.8003C33.7768 21.7414 34.068 21.6928 34.2104 21.3583C34.1353 21.1499 33.9577 21.0929 33.8014 21.0588C33.2227 20.9326 32.6411 20.8182 32.057 20.7294C31.4725 20.6406 30.8839 20.5906 30.2974 20.5168C30.1579 20.4995 30.0829 20.2939 30.1628 20.1547C30.2576 19.9902 30.3659 19.8355 30.4643 19.6734C31.0759 18.666 31.7284 17.6872 32.1866 16.57C32.3769 16.1055 32.5746 15.6397 32.7128 15.1538C32.9003 14.4963 32.5734 14.0417 31.984 14.0889C31.8125 14.1029 31.6378 14.1361 31.4741 14.1945C30.5804 14.5146 29.6879 14.8384 28.7995 15.1776C28.642 15.2379 28.5066 15.3762 28.3647 15.4846C28.2917 15.5402 28.2872 15.6168 28.3438 15.6925C28.3651 15.7215 28.3909 15.7626 28.418 15.7663C28.5521 15.7841 28.6879 15.8084 28.8216 15.7995C29.5181 15.7514 30.194 15.5687 30.8704 15.3879C31.0664 15.3355 31.267 15.2238 31.4873 15.4378ZM16.1393 19.4706C16.1393 19.352 16.1364 19.2333 16.1397 19.1146C16.1606 18.245 15.6446 17.4914 14.6914 18.1675C14.2497 18.4805 13.821 18.823 13.4142 19.1917C12.7349 19.808 12.013 20.3691 11.424 21.1055C11.308 21.2504 11.2079 21.4289 11.3621 21.6218C11.4733 21.7611 11.6258 21.7326 11.7489 21.6704C11.9708 21.5592 12.1865 21.4265 12.3933 21.2817C13.0741 20.8041 13.7493 20.3163 14.4277 19.8351C14.545 19.7519 14.6615 19.6589 14.7898 19.6071C14.9104 19.558 14.9945 19.6781 14.9917 19.7898C14.9851 20.0253 14.9621 20.265 14.91 20.4925C14.691 21.4513 14.4269 22.3918 14.0712 23.3011C13.8604 23.8403 13.6717 24.4057 13.5704 24.9818C13.4334 25.7602 13.7837 26.1976 14.4716 26.2251C14.6442 26.2321 14.8243 26.2335 14.9904 26.1882C16.1729 25.8658 17.3558 25.5425 18.5035 25.0785C18.9313 24.9061 19.3456 24.6925 19.6606 24.3024C19.7245 24.2234 19.7762 24.094 19.7729 23.9908C19.7688 23.859 19.6438 23.8258 19.5441 23.8324C19.2319 23.852 18.9186 23.8697 18.6089 23.9146C17.8144 24.0281 17.0376 24.237 16.2664 24.4814C15.8993 24.5972 15.522 24.6748 15.1475 24.7575C14.9908 24.7916 14.8612 24.6388 14.9113 24.4837C15.0191 24.1501 15.1471 23.8249 15.2554 23.4913C15.6791 22.1886 16.0876 20.8817 16.1393 19.4706ZM28.3909 26.5349C28.1809 26.5148 28.0751 26.4788 27.9783 26.4994C26.9205 26.7223 25.8508 26.8699 24.8098 27.1975C24.3086 27.3554 23.793 27.4582 23.2811 27.5675C22.9082 27.6469 22.7942 27.4694 22.9119 27.018C22.9612 26.8283 23.0186 26.6414 23.0752 26.4541C23.5407 24.9201 24.0268 23.3941 24.4661 21.8503C24.7876 20.7214 25.053 19.5706 25.1642 18.3843C25.3446 16.456 25.5243 14.5272 25.6925 12.5975C25.7158 12.3255 25.7027 12.0386 25.6543 11.7714C25.5489 11.191 25.2003 10.9219 24.6744 10.9406C24.2454 10.9556 23.8586 11.1392 23.4763 11.3223C22.7081 11.6915 21.9456 12.0779 21.1909 12.4825C20.6888 12.7512 20.2008 13.0558 19.7151 13.3619C19.5654 13.4562 19.4251 13.6086 19.517 13.8408C19.5806 14.0025 19.7266 14.0431 19.8677 14.0319C20.0748 14.016 20.2836 13.994 20.4854 13.9431C20.688 13.8917 20.8857 13.8095 21.081 13.7273C22.0908 13.303 23.099 12.8736 24.1084 12.4475C24.3701 12.3372 24.519 12.4503 24.5071 12.7479C24.5038 12.8269 24.489 12.9049 24.4812 12.9839C24.3287 14.515 24.1728 16.0467 24.0243 17.5787C23.8672 19.1992 23.4993 20.7616 23.0436 22.3003C22.6556 23.6123 22.2676 24.9243 21.8595 26.2279C21.7163 26.6858 21.6708 27.1573 21.6523 27.6278C21.6236 28.3469 22.0223 28.8361 22.6408 28.9052C22.8127 28.9239 22.9886 28.8884 23.1613 28.902C23.6634 28.9426 24.11 28.6777 24.5875 28.5828C25.4849 28.4044 26.3282 28.0292 27.1506 27.6026C27.585 27.3769 28.0365 27.1475 28.3909 26.5349ZM39.9961 19.8136C39.9605 20.9621 39.9059 22.1036 39.746 23.246C39.2054 27.1035 37.3756 29.9402 34.5352 32.0129C33.3031 32.9123 32.0307 33.73 30.71 34.4468C30.4073 34.6108 30.2076 34.8084 30.1054 35.1925C29.4426 37.6792 27.8983 39.1968 25.8044 39.9785C23.64 40.7859 21.4354 40.819 19.2266 40.0892C18.1147 39.7215 17.0466 39.2571 16.0983 38.4997C15.6578 38.1478 15.3108 38.1791 14.8793 38.5113C14.1566 39.0678 13.3567 39.4608 12.5261 39.7752C9.5221 40.9125 6.82526 40.3065 4.47419 37.8941C3.6354 37.033 3.07225 35.927 2.69202 34.7154C2.1424 32.9628 1.97342 31.1667 2.30565 29.3309C2.45413 28.5123 2.74248 27.7455 3.03205 26.9811C3.23426 26.4471 3.23098 26.4494 2.85445 26.1125C2.38932 25.6962 1.91805 25.2883 1.46728 24.8528C0.594034 24.008 0.177303 22.8483 0.0591749 21.619C-0.22507 18.653 0.5042 16.0499 2.47463 13.9847C2.86142 13.5791 3.29825 13.2502 3.78101 13.0152C4.18298 12.8194 4.37288 12.5143 4.34622 12.0036C4.29208 10.9532 4.52752 9.94772 4.85237 8.98753C5.86753 5.98829 7.74444 3.96557 10.4273 3.01052C12.1701 2.39002 13.9371 2.48348 15.6172 3.38853C15.9564 3.57123 16.175 3.53805 16.451 3.26611C17.8001 1.9368 19.3858 1.1065 21.1228 0.77616C23.6666 0.292094 25.9824 0.817278 27.7322 3.21845C28.1809 3.83428 28.4648 4.55617 28.758 5.2762C28.9155 5.66214 28.9262 6.21255 29.2835 6.38917C29.5775 6.53448 29.9672 6.43168 30.3146 6.43122C32.2826 6.42888 34.0984 6.9793 35.6947 8.33805C37.1229 9.55382 38.1713 11.1135 38.8674 12.9713C39.6848 15.1528 40.0417 17.4418 39.9961 19.8136Z" fill="#31457E"/>
</svg>
